<svg xmlns="http://www.w3.org/2000/svg" xmlns:xlink="http://www.w3.org/1999/xlink" viewBox="0,0,256,256" width="40px" height="40px" fill-rule="nonzero"><g fill="none" fill-rule="nonzero" stroke="none" stroke-width="1" stroke-linecap="butt" stroke-linejoin="miter" stroke-miterlimit="10" stroke-dasharray="" stroke-dashoffset="0" font-family="none" font-weight="none" font-size="none" text-anchor="none" style="mix-blend-mode: normal"><g transform="scale(6.4,6.4)"><path d="M11.588,9.124c0,0 9.555,2.353 11.45,2.638c2.832,0.427 5.912,2.523 4.24,6.633c-1.567,3.85 -8.663,2.289 -11.818,-1.343c-3.155,-3.632 -3.872,-7.928 -3.872,-7.928z" fill="#000000"></path><path d="M1.391,25.922c0,0 8.99,-2.648 12.655,-7.899c3.665,-5.251 7.302,-13.617 16.724,-11.085c1.675,0.45 6.117,2.32 5.278,11.283c-0.824,8.796 -8.042,15.342 -16.76,15.342c-8.718,0 -15.421,-4.669 -17.897,-7.641z" fill="#000000"></path><path d="M19.287,34.063c-9.305,0 -16.026,-5.116 -18.281,-7.82c-0.107,-0.129 -0.143,-0.304 -0.094,-0.465c0.049,-0.161 0.176,-0.287 0.337,-0.334c0.088,-0.026 8.866,-2.662 12.387,-7.705c0.5,-0.716 0.999,-1.49 1.512,-2.286c3.239,-5.023 7.268,-11.275 15.751,-8.997c1.98,0.532 6.495,2.749 5.646,11.813c-0.844,9.003 -8.263,15.794 -17.258,15.794zM2.277,26.163c2.542,2.666 8.688,6.9 17.01,6.9c8.476,0 15.467,-6.401 16.262,-14.889c0.75,-8.007 -2.754,-10.174 -4.909,-10.754c-7.772,-2.086 -11.428,3.575 -14.651,8.573c-0.521,0.807 -1.026,1.591 -1.532,2.316c-3.142,4.499 -9.913,7.087 -12.18,7.854z" fill="#313131"></path><path d="M18.149,12.043c0,0 7.768,5.834 17.952,6.027c0,0 0.387,-4.706 -1.031,-7.735c0,0 -6.027,0.064 -13.569,-1.676c0,0 -1.229,0.833 -1.547,1.16c-0.505,0.519 -1.805,2.224 -1.805,2.224z" fill="#d31d1d"></path><ellipse cx="-7.5414" cy="33.69293" transform="rotate(-79.444)" rx="2.36" ry="2.746" fill="#ffffff"></ellipse><path d="M6.313,12.516c0,0 5.325,1.429 10.225,1.881c2.697,0.248 5.866,2.192 4.706,5.801c-1.272,3.957 -7.349,3.545 -10.829,-0.193c-3.28,-3.521 -4.102,-7.489 -4.102,-7.489z" fill="#000000"></path><path d="M18.103,22.365c0.942,-0.21 2.17,-0.783 2.664,-2.32c0.375,-1.169 0.275,-2.202 -0.298,-3.069c-0.705,-1.067 -2.177,-1.857 -3.785,-2.054c-0.235,0.359 -0.467,0.717 -0.696,1.072c-0.521,0.807 -1.026,1.591 -1.532,2.316c-0.644,0.923 -1.445,1.76 -2.325,2.523c1.844,1.323 4.112,1.946 5.972,1.532z" fill="none"></path><path d="M13.636,17.737c0.5,-0.716 0.999,-1.49 1.512,-2.286c0.139,-0.216 0.285,-0.438 0.427,-0.657c-3.461,-0.396 -6.984,-1.198 -8.552,-1.582c0.414,1.307 1.477,4.004 3.755,6.452c0.175,0.188 0.366,0.357 0.556,0.529c0.88,-0.744 1.676,-1.56 2.302,-2.456z" fill="none"></path><path d="M21.303,16.424c0.739,1.117 0.882,2.475 0.416,3.926c-0.499,1.551 -1.706,2.613 -3.399,2.991c-0.45,0.101 -0.921,0.149 -1.404,0.149c-1.87,0 -3.907,-0.738 -5.583,-2.002c-3.301,2.562 -7.392,4.112 -9.056,4.674c2.542,2.666 8.688,6.9 17.01,6.9c8.476,0 15.467,-6.401 16.262,-14.889c0.75,-8.006 -2.754,-10.173 -4.909,-10.753c-6.749,-1.811 -10.393,2.219 -13.346,6.583c1.439,0.278 3.081,1.018 4.009,2.421z" fill="none"></path><path d="M27.69,14.037c0.725,1.274 0.743,2.846 0.05,4.547c-0.544,1.336 -1.695,2.187 -3.33,2.458c-0.37,0.062 -0.756,0.091 -1.153,0.091c-0.574,0 -1.172,-0.077 -1.775,-0.194c-0.592,1.231 -1.693,2.076 -3.163,2.403c-0.45,0.101 -0.921,0.149 -1.404,0.149c-1.87,0 -3.907,-0.738 -5.583,-2.002c-3.301,2.562 -7.392,4.112 -9.056,4.674c2.542,2.666 8.688,6.9 17.01,6.9c8.476,0 15.467,-6.401 16.262,-14.889c0.751,-8.007 -2.753,-10.174 -4.908,-10.754c-4.894,-1.313 -8.152,0.45 -10.701,3.18c1.425,0.325 2.631,0.585 3.174,0.667c2.056,0.311 3.767,1.346 4.577,2.77z" fill="none"></path><path d="M18.133,11.211c-2.259,-0.528 -4.665,-1.112 -5.878,-1.409c0.212,0.814 0.654,2.2 1.444,3.731c0.822,0.126 1.663,0.239 2.495,0.324c0.599,-0.897 1.251,-1.786 1.939,-2.646z" fill="none"></path><path d="M15.082,17.381c-0.841,-0.968 -1.509,-1.975 -2.043,-2.941c-2.54,-0.411 -4.833,-0.938 -6.015,-1.228c0.414,1.307 1.477,4.004 3.755,6.452c0.175,0.188 0.366,0.357 0.556,0.529c0.254,0.229 0.52,0.442 0.796,0.64c1.844,1.323 4.112,1.946 5.971,1.533c0.794,-0.177 1.786,-0.62 2.376,-1.672c-2.048,-0.6 -4.062,-1.778 -5.396,-3.313z" fill="none"></path><path d="M21.303,16.424c0.676,1.022 0.847,2.246 0.516,3.558c0.853,0.154 1.685,0.195 2.429,0.073c0.888,-0.147 2.054,-0.588 2.567,-1.848c0.58,-1.427 0.583,-2.663 0.006,-3.676c-0.66,-1.159 -2.102,-2.01 -3.858,-2.274c-0.637,-0.096 -2.103,-0.417 -3.779,-0.802c-0.671,0.807 -1.296,1.67 -1.891,2.549c1.44,0.277 3.082,1.017 4.01,2.42z" fill="none"></path><path d="M20.831,19.759c0.271,-1.049 0.163,-1.989 -0.363,-2.783c-0.705,-1.067 -2.177,-1.857 -3.785,-2.054c-0.065,-0.008 -0.128,-0.021 -0.193,-0.027c-0.303,-0.028 -0.61,-0.065 -0.916,-0.1c-0.42,-0.048 -0.842,-0.102 -1.26,-0.161c0.428,0.7 0.928,1.409 1.522,2.092c1.214,1.396 3.102,2.492 4.995,3.033z" fill="none"></path><path d="M36.64,16.299l2.391,-0.948l-2.469,-0.905c-0.557,-5.891 -3.999,-7.545 -5.663,-7.992c-4.702,-1.263 -8.123,0.03 -10.712,2.346c0.044,-1.236 0.07,-3.234 0.035,-4.043c-0.089,-2.057 -1.582,-2.489 -3.645,-2.58c-0.651,-0.029 -1.342,-1.048 -1.575,-1.538l-1.66,0.78c0.12,0.256 1.227,2.505 3.154,2.59c1.795,0.079 1.937,0.173 2.249,1.064c0.089,0.263 0.019,1.195 0.017,2.288c-0.305,-0.435 -0.677,-0.878 -1.138,-1.296c-1.854,-1.675 -4.228,-1.345 -6.521,-1.024l-0.787,0.109c-1.72,0.22 -2.268,-1.167 -2.326,-1.327l-0.865,0.302l-0.868,0.294c0.348,1.029 1.69,2.882 4.295,2.549l0.805,-0.11c2.134,-0.298 3.82,-0.533 5.038,0.568c1.122,1.014 1.581,2.241 1.735,2.755c-3.079,-0.722 -6.366,-1.53 -6.422,-1.544c-0.162,-0.04 -0.335,0.004 -0.459,0.119c-0.124,0.114 -0.181,0.283 -0.153,0.449c0.019,0.115 0.331,1.896 1.378,4.127c-3.288,-0.572 -5.993,-1.29 -6.031,-1.3c-0.166,-0.047 -0.346,0 -0.473,0.119c-0.126,0.119 -0.182,0.295 -0.146,0.465c0.035,0.167 0.89,4.146 4.225,7.728c0.156,0.168 0.326,0.321 0.494,0.478c-4.006,3.025 -9.224,4.599 -9.292,4.62c-0.161,0.047 -0.288,0.173 -0.337,0.334c-0.049,0.161 -0.013,0.336 0.094,0.465c2.254,2.705 8.751,7.766 18.056,7.766c8.995,0 16.639,-6.736 17.483,-15.741c0.009,-0.094 0.009,-0.175 0.016,-0.267l1.966,-0.534l-1.887,-1.047c0,-0.041 -0.002,-0.078 -0.002,-0.119zM12.255,9.802c1.214,0.297 3.62,0.881 5.878,1.409c-0.688,0.86 -1.34,1.749 -1.94,2.647c-0.832,-0.085 -1.673,-0.198 -2.495,-0.324c-0.789,-1.531 -1.231,-2.918 -1.443,-3.732zM7.024,13.212c1.182,0.29 3.475,0.817 6.015,1.228c0.42,0.068 0.846,0.133 1.276,0.193c0.419,0.059 0.84,0.113 1.26,0.161c0.306,0.035 0.612,0.072 0.916,0.1c0.065,0.006 0.128,0.019 0.193,0.027c1.608,0.197 3.08,0.988 3.785,2.054c0.525,0.795 0.633,1.734 0.363,2.783c-0.025,0.096 -0.033,0.188 -0.065,0.286c-0.078,0.242 -0.178,0.452 -0.288,0.648c-0.59,1.053 -1.581,1.495 -2.376,1.672c-1.859,0.414 -4.127,-0.21 -5.971,-1.533c-0.276,-0.198 -0.542,-0.411 -0.796,-0.64c-0.19,-0.171 -0.382,-0.341 -0.556,-0.529c-2.279,-2.446 -3.342,-5.143 -3.756,-6.45zM35.549,18.174c-0.795,8.488 -7.941,14.814 -16.417,14.814c-8.322,0 -14.314,-4.16 -16.856,-6.826c1.665,-0.563 5.755,-2.112 9.056,-4.674c1.676,1.264 3.712,2.002 5.583,2.002c0.482,0 0.954,-0.048 1.404,-0.149c1.47,-0.328 2.571,-1.172 3.163,-2.403c0.09,-0.188 0.17,-0.383 0.236,-0.588c0.04,-0.124 0.069,-0.246 0.1,-0.368c0.331,-1.312 0.16,-2.536 -0.516,-3.558c-0.928,-1.404 -2.57,-2.144 -4.009,-2.421c0.595,-0.879 1.22,-1.742 1.891,-2.549c0.244,-0.294 0.496,-0.578 0.754,-0.854c2.549,-2.73 5.807,-4.494 10.701,-3.18c1.386,0.372 3.324,1.412 4.336,4.228l-4.392,-1.949l-0.744,1.676l2.103,0.933c-0.471,0.17 -0.831,0.541 -0.921,1.023c-0.143,0.766 0.449,1.52 1.323,1.682c0.873,0.163 1.697,-0.327 1.84,-1.093c0.041,-0.22 0.016,-0.437 -0.054,-0.642l0.576,0.255l0.506,-1.139c0.397,1.473 0.564,3.355 0.337,5.78z" fill="#313131"></path><circle cx="33.484" cy="13.52" r="0.5" fill="#ffffff"></circle></g></g></svg>